<?xml version="1.0" standalone="no"?>
<!DOCTYPE svg PUBLIC "-//W3C//DTD SVG 20010904//EN"
 "http://www.w3.org/TR/2001/REC-SVG-20010904/DTD/svg10.dtd">
<svg version="1.0" xmlns="http://www.w3.org/2000/svg"
 width="981.000000pt" height="380.000000pt" viewBox="0 0 981.000000 380.000000"
 preserveAspectRatio="xMidYMid meet">
<metadata>
Created by potrace 1.15, written by Peter Selinger 2001-2017
</metadata>
<g transform="translate(0.000000,380.000000) scale(0.100000,-0.100000)"
fill="#000000" stroke="none">
<path d="M264 3790 c-102 -21 -194 -92 -235 -183 l-24 -52 0 -1655 0 -1655 24
-52 c29 -66 111 -143 176 -169 49 -19 133 -19 4700 -19 l4650 0 56 26 c68 32
120 82 157 152 l27 52 0 1665 0 1665 -27 51 c-33 64 -113 136 -176 161 -45 17
-205 18 -4667 19 -2541 1 -4638 -2 -4661 -6z m9111 -339 c61 -27 111 -89 124
-153 8 -38 11 -448 9 -1428 l-3 -1375 -22 -40 c-27 -51 -68 -90 -115 -109 -34
-14 -485 -16 -4468 -16 -3983 0 -4434 2 -4468 16 -47 19 -88 58 -113 106 -18
36 -19 79 -19 1448 0 1369 1 1412 19 1448 24 47 66 86 111 106 31 14 529 15
4470 15 4269 1 4436 0 4475 -18z"/>
<path d="M1700 3031 c-160 -34 -258 -88 -359 -198 -48 -52 -84 -104 -116 -167
-84 -170 -79 -104 -83 -1053 l-3 -843 166 0 165 0 0 814 c0 511 4 833 10 867
24 126 109 249 199 288 140 60 340 43 448 -38 115 -87 171 -254 133 -393 -16
-56 -71 -129 -124 -165 -82 -56 -126 -64 -358 -63 l-208 0 0 -139 0 -138 238
-6 c307 -7 390 -27 491 -122 80 -74 114 -198 91 -326 -21 -113 -72 -178 -178
-227 -98 -46 -148 -52 -408 -52 l-234 0 0 -151 0 -151 318 5 c251 3 328 8 372
20 214 63 381 241 426 457 20 93 14 288 -11 370 -45 148 -136 261 -258 321
l-65 32 37 27 c51 37 116 113 141 165 28 58 40 138 40 270 0 235 -74 384 -243
489 -183 114 -409 153 -627 107z"/>
<path d="M5020 3035 c-204 -38 -397 -134 -575 -285 -188 -159 -294 -341 -340
-583 -18 -94 -20 -373 -4 -480 59 -394 252 -656 606 -824 51 -25 146 -58 211
-75 103 -26 139 -31 297 -35 200 -6 296 6 446 53 263 83 466 269 610 559 97
198 138 407 118 617 -29 309 -118 519 -288 686 -199 195 -387 303 -615 353
-121 27 -361 34 -466 14z m402 -279 c263 -52 424 -183 548 -448 72 -156 85
-224 84 -458 0 -194 -2 -210 -28 -295 -37 -123 -84 -202 -169 -288 -167 -168
-365 -247 -620 -247 -336 0 -590 159 -746 467 -63 125 -76 196 -76 408 0 214
9 260 75 401 113 242 289 400 507 453 98 24 317 28 425 7z"/>
<path d="M7546 3034 c-248 -45 -473 -167 -675 -366 -171 -169 -250 -325 -286
-568 -78 -514 165 -1011 601 -1229 282 -141 698 -160 999 -46 334 126 570 381
654 710 31 122 41 206 41 373 l0 152 -550 0 -550 0 0 -155 0 -155 389 0 389 0
-5 -42 c-13 -103 -81 -265 -158 -374 -63 -87 -190 -204 -266 -241 -126 -64
-294 -86 -473 -64 -182 23 -308 71 -433 165 -139 105 -267 320 -307 518 -22
107 -20 281 4 390 54 245 220 483 405 580 177 92 418 121 610 72 125 -32 320
-146 448 -262 l68 -62 57 62 c32 35 78 85 103 112 l44 49 -75 69 c-180 167
-390 273 -614 313 -109 19 -313 18 -420 -1z"/>
<path d="M2972 2148 c4 -955 1 -908 70 -1046 39 -77 166 -202 254 -249 121
-65 182 -75 457 -80 l247 -5 0 140 0 141 -212 -2 c-187 -2 -219 0 -263 17
-113 42 -169 106 -218 246 -22 65 -22 68 -27 880 l-5 815 -153 3 -153 3 3
-863z"/>
</g>
</svg>
